<svg width="14" height="14" viewBox="0 0 14 14" fill="none" xmlns="http://www.w3.org/2000/svg">
<path fill-rule="evenodd" clip-rule="evenodd" d="M1.75 1.60417C1.75 1.17872 1.91901 0.770689 2.21985 0.469849C2.52069 0.16901 2.92872 0 3.35417 0L11.8125 0C11.9285 0 12.0398 0.0460936 12.1219 0.128141C12.2039 0.210188 12.25 0.321468 12.25 0.4375V12.3958C12.25 12.5119 12.2039 12.6231 12.1219 12.7052C12.0398 12.7872 11.9285 12.8333 11.8125 12.8333H8.3125C8.19647 12.8333 8.08519 12.7872 8.00314 12.7052C7.92109 12.6231 7.875 12.5119 7.875 12.3958C7.875 12.2798 7.92109 12.1685 8.00314 12.0865C8.08519 12.0044 8.19647 11.9583 8.3125 11.9583H11.375V9.625H3.5C3.26794 9.625 3.04538 9.71719 2.88128 9.88128C2.71719 10.0454 2.625 10.2679 2.625 10.5V10.9375C2.625 11.3552 2.87583 11.7157 3.2375 11.8737C3.34026 11.9224 3.42002 12.0092 3.4599 12.1157C3.49977 12.2222 3.49662 12.34 3.45112 12.4442C3.40562 12.5484 3.32133 12.6308 3.21613 12.6739C3.11092 12.7171 2.99305 12.7175 2.8875 12.6752C2.54938 12.5277 2.26166 12.2847 2.05961 11.976C1.85756 11.6673 1.74996 11.3064 1.75 10.9375V1.60417ZM11.375 0.875V8.75H3.5C3.1815 8.75 2.88225 8.83517 2.625 8.98392V1.60417C2.625 1.20167 2.95167 0.875 3.35417 0.875H11.375Z" fill="#EEEEEE"/>
<path d="M4.08334 10.6458C4.08334 10.6072 4.0987 10.5701 4.12605 10.5427C4.1534 10.5154 4.19049 10.5 4.22917 10.5H7.14584C7.18451 10.5 7.22161 10.5154 7.24896 10.5427C7.2763 10.5701 7.29167 10.6072 7.29167 10.6458V13.5683C7.29154 13.5952 7.28401 13.6215 7.2699 13.6443C7.25579 13.6671 7.23566 13.6856 7.21171 13.6977C7.18777 13.7099 7.16094 13.7151 7.13419 13.713C7.10744 13.7108 7.08179 13.7014 7.06009 13.6856L5.77325 12.7499C5.74833 12.7318 5.71831 12.722 5.6875 12.722C5.65669 12.722 5.62667 12.7318 5.60175 12.7499L4.31492 13.685C4.29325 13.7008 4.26766 13.7102 4.24096 13.7124C4.21426 13.7146 4.18748 13.7093 4.16355 13.6973C4.13963 13.6852 4.11948 13.6668 4.10533 13.6441C4.09118 13.6213 4.08357 13.5951 4.08334 13.5683V10.6458Z" fill="#EEEEEE"/>
</svg>
